<svg width="34" height="20" viewBox="0 0 34 20" fill="none" xmlns="http://www.w3.org/2000/svg">
<path fill-rule="evenodd" clip-rule="evenodd" d="M13.5283 9.17505C11.3944 9.17505 9.66467 10.9658 9.66467 13.175V15.4651C9.66467 17.6743 11.3944 19.4651 13.5283 19.4651H13.7573V16.4386C13.7573 14.7671 15.0661 13.4121 16.6806 13.4121C18.2951 13.4121 19.604 14.7671 19.604 16.4386V19.4651H19.8329C21.9667 19.4651 23.6966 17.6743 23.6966 15.4651V13.175C23.6966 10.9658 21.9667 9.17505 19.8329 9.17505H13.5283Z" fill="white"/>
<path d="M14.859 2.13118C15.9827 1.21132 17.5696 1.21132 18.6933 2.13118L24.3295 6.74513C26.6282 8.62693 25.3429 12.4553 22.4124 12.4553H11.14C8.20941 12.4553 6.92407 8.62693 9.22284 6.74513L14.859 2.13118Z" fill="white"/>
</svg>
