<svg width="17" height="19" viewBox="0 0 17 19" fill="none" xmlns="http://www.w3.org/2000/svg">
<path fill-rule="evenodd" clip-rule="evenodd" d="M11.6004 19.0001H4.60565C3.39952 19.0001 2.50044 18.153 2.41099 17.1242L1.22474 3.50824C1.19627 3.18122 1.53876 2.91194 1.92236 2.91194H14.2839C14.6675 2.91194 15.01 3.18184 14.9815 3.50824L13.7953 17.1242C13.7058 18.1521 12.8057 19.0001 11.6006 19.0001H11.6004ZM5.85582 16.7385C5.58451 16.7526 5.34705 16.5421 5.32824 16.27L4.6583 6.56913C4.63949 6.29734 4.84633 6.06322 5.11764 6.04878C5.38895 6.03466 5.62642 6.24525 5.64522 6.51735L6.31517 16.2182C6.33397 16.49 6.12713 16.7241 5.85582 16.7385ZM8.07546 16.7486C7.80362 16.7486 7.5812 16.5254 7.5812 16.253V6.53461C7.5812 6.26188 7.80362 6.03905 8.07546 6.03905C8.34731 6.03905 8.56973 6.26219 8.56973 6.53461V16.253C8.56973 16.5257 8.34731 16.7486 8.07546 16.7486ZM10.2951 16.7385C10.5664 16.7526 10.8039 16.5421 10.8227 16.27L11.4924 6.56913C11.5112 6.29734 11.3046 6.06322 11.033 6.04878C10.7617 6.03434 10.5242 6.24525 10.5054 6.51735L9.83576 16.2182C9.81695 16.49 10.0235 16.7241 10.2951 16.7385Z" fill="#EE2726"/>
<path fill-rule="evenodd" clip-rule="evenodd" d="M5.01165 3.59541H5.71195V1.73464C5.71195 1.33136 5.99454 1.0012 6.33973 1.0012H9.87213C10.2173 1.0012 10.4999 1.33136 10.4999 1.73464V3.59541H11.2002C11.2862 3.59541 11.3566 3.51318 11.3566 3.41275V1.79773C11.3566 0.809128 10.664 4.57764e-05 9.81787 4.57764e-05H6.39372C5.54755 4.57764e-05 4.85504 0.809128 4.85504 1.79773V3.41275C4.85504 3.51318 4.92542 3.59541 5.01138 3.59541H5.01165Z" fill="#EE2726"/>
<rect x="16.1494" y="2.37506" width="1.15582" height="16.1497" rx="0.577909" transform="rotate(90 16.1494 2.37506)" fill="#EE2726"/>
</svg>
