<svg width="20" height="13" viewBox="0 0 20 13" fill="none" xmlns="http://www.w3.org/2000/svg">
<path d="M19.7702 1.29024C20.0686 1.00293 20.0776 0.528143 19.7902 0.229773C19.5029 -0.0685969 19.0281 -0.0775569 18.7298 0.209763L11.9798 6.7098C11.6814 6.9971 11.6724 7.4719 11.9598 7.7702C12.2471 8.0686 12.7219 8.0776 13.0202 7.7902L19.7702 1.29024ZM16.9867 0.500003L2.55 0.500013C1.14167 0.500013 0 1.64168 0 3.05001V9.95C0 11.3583 1.14168 12.5 2.55 12.5H17.45C18.8583 12.5 20 11.3583 20 9.95V3.05C20 2.86543 19.9804 2.68544 19.9431 2.512L13.7139 8.5106C13.0177 9.181 11.9098 9.1601 11.2394 8.4639C10.569 7.7677 10.5899 6.6598 11.2861 5.9894L16.9867 0.500003ZM2.5 4.75C2.5 4.33579 2.83579 4 3.25 4H5.25C5.66421 4 6 4.33579 6 4.75C6 5.16421 5.66421 5.5 5.25 5.5H3.25C2.83579 5.5 2.5 5.16421 2.5 4.75ZM2.5 8.25C2.5 7.8358 2.83579 7.5 3.25 7.5H8.25C8.6642 7.5 9 7.8358 9 8.25C9 8.6642 8.6642 9 8.25 9H3.25C2.83579 9 2.5 8.6642 2.5 8.25Z" fill="#909090"/>
</svg>
