<svg width="18" height="22" viewBox="0 0 18 22" fill="none" xmlns="http://www.w3.org/2000/svg">
<path d="M9 22C9.7523 22 10.4064 21.5837 10.7447 20.9687C11.0109 20.4848 10.5423 20.01 9.99 20.01H8.01C7.45772 20.01 6.9891 20.4848 7.25529 20.9687C7.59362 21.5837 8.2477 22 9 22ZM16.2929 16.2929C16.1054 16.1054 16 15.851 16 15.5858V10C16 6.93251 14.0213 4.32616 11.2768 3.38632C10.8315 3.23382 10.5 2.8341 10.5 2.36338V1.5C10.5 0.947716 10.0523 0.5 9.5 0.5H8.5C7.94772 0.5 7.5 0.947715 7.5 1.5V2.36338C7.5 2.8341 7.16853 3.23382 6.72319 3.38632C3.97874 4.32616 2 6.93251 2 10V15.5858C2 15.851 1.89464 16.1054 1.70711 16.2929L0.207106 17.7929C0.0744982 17.9255 0 18.1054 0 18.2929C0 18.6834 0.316582 19 0.707107 19H17.2929C17.6834 19 18 18.6834 18 18.2929C18 18.1054 17.9255 17.9255 17.7929 17.7929L16.2929 16.2929ZM10 14C10 14.5523 9.55229 15 9 15C8.44771 15 8 14.5523 8 14C8 13.4477 8.44771 13 9 13C9.55229 13 10 13.4477 10 14ZM10 10C10 10.5523 9.55229 11 9 11C8.44771 11 8 10.5523 8 10V8C8 7.44772 8.44771 7 9 7C9.55229 7 10 7.44772 10 8V10Z" fill="white"/>
</svg>
