<svg width="20" height="20" viewBox="0 0 20 20" fill="none" xmlns="http://www.w3.org/2000/svg">
<path fill-rule="evenodd" clip-rule="evenodd" d="M8.28321 16.5664C12.8579 16.5664 16.5664 12.8579 16.5664 8.28321C16.5664 3.70852 12.8579 0 8.28321 0C3.70852 0 0 3.70852 0 8.28321C0 12.8579 3.70852 16.5664 8.28321 16.5664ZM8.39112 13.0209C11.0741 13.0209 13.2491 10.8458 13.2491 8.16284C13.2491 5.47983 11.0741 3.30482 8.39112 3.30482C5.70811 3.30482 3.5331 5.47983 3.5331 8.16284C3.5331 10.8458 5.70811 13.0209 8.39112 13.0209Z" fill="#E5E5E5"/>
<path d="M18.5508 18.551C17.7504 19.3514 16.4527 19.3514 15.6524 18.551L11.7741 14.6728C10.9738 13.8725 10.9738 12.5748 11.7741 11.7744C12.5745 10.9741 13.8722 10.9741 14.6725 11.7744L18.5508 15.6527C19.3511 16.453 19.3511 17.7507 18.5508 18.551Z" fill="#E5E5E5"/>
</svg>
