<svg width="23" height="17" viewBox="0 0 23 17" fill="none" xmlns="http://www.w3.org/2000/svg">
<g id="Stream Icon">
<path id="Vector" fill-rule="evenodd" clip-rule="evenodd" d="M5.01482 15.4892C5.1485 14.7916 4.44363 14.2679 4.04776 13.7725C1.54148 10.6359 1.62005 6.47261 3.66254 3.18521C3.85235 2.87962 4.03473 2.60584 4.27852 2.33935C4.62509 1.96077 5.04262 1.56858 5.04262 1.14228C5.04262 0.00293389 3.77482 -0.962138 1.98133 1.75865C1.46954 2.53494 1.01525 3.41876 0.697944 4.29135C-0.183002 6.71399 -0.243216 9.49679 0.592665 11.9407C1.05054 13.2794 2.37454 15.7426 3.75972 16.3559C4.38592 16.6332 4.904 16.0668 5.01477 15.4893L5.01482 15.4892Z" fill="white"/>
<path id="Vector_2" fill-rule="evenodd" clip-rule="evenodd" d="M6.36722 12.3678C7.43559 13.3261 8.80623 12.2436 7.89341 10.9442C7.50167 10.3865 7.25022 10.0633 7.09032 9.7472C6.67784 8.93187 6.71411 7.28879 7.17655 6.46949C7.5356 5.83325 8.65594 4.95751 8.07378 4.19065C7.87701 3.93133 7.52952 3.69531 6.98374 3.69531C6.35728 3.69531 5.66751 4.71474 5.21572 5.81451C4.91666 6.54265 4.74818 7.35712 4.72912 8.17743C4.69285 9.73676 5.19622 11.3175 6.36722 12.3679V12.3678Z" fill="white"/>
<path id="Vector_3" d="M11.5136 10.2426C12.6751 10.2426 13.6167 9.31384 13.6167 8.16817C13.6167 7.0225 12.6751 6.09375 11.5136 6.09375C10.3521 6.09375 9.41052 7.0225 9.41052 8.16817C9.41052 9.31384 10.3521 10.2426 11.5136 10.2426Z" fill="white"/>
<path id="Vector_4" fill-rule="evenodd" clip-rule="evenodd" d="M18.0321 15.6684C17.7585 14.8534 18.4713 14.3744 18.9523 13.7725C21.4585 10.6359 21.3799 6.47261 19.3375 3.18521C19.1477 2.87962 18.9653 2.60584 18.7215 2.33935C18.3749 1.96077 17.9574 1.56858 17.9574 1.14228C17.9574 0.00293389 19.2252 -0.962138 21.0187 1.75865C21.5305 2.53494 21.9848 3.41876 22.3021 4.29135C23.183 6.71399 23.2432 9.49679 22.4074 11.9407C21.9565 13.259 20.6656 15.6677 19.3035 16.3266C18.7175 16.6099 18.2252 16.2434 18.0321 15.6684H18.0321Z" fill="white"/>
<path id="Vector_5" fill-rule="evenodd" clip-rule="evenodd" d="M16.6325 12.3678C15.5641 13.3261 14.1935 12.2436 15.1063 10.9442C15.4981 10.3865 15.7495 10.0633 15.9094 9.7472C16.3219 8.93187 16.2857 7.28879 15.8232 6.46949C15.5043 5.90448 14.457 5.00335 14.8377 4.32502C15.0094 4.01922 15.3765 3.69531 16.0159 3.69531C16.6424 3.69531 17.3322 4.71474 17.7839 5.81451C18.083 6.54265 18.2515 7.35712 18.2705 8.17743C18.3068 9.73676 17.8034 11.3175 16.6324 12.3679L16.6325 12.3678Z" fill="white"/>
</g>
</svg>
