<svg width="20" height="20" viewBox="0 0 20 20" fill="none" xmlns="http://www.w3.org/2000/svg">
<path d="M17.881 11.5225C17.4218 11.1615 17.2 10.5842 17.2 9.99999C17.2 9.41857 17.4158 8.83751 17.8747 8.48039L19.16 7.47999C19.34 7.33999 19.39 7.06999 19.28 6.86999L17.36 3.54999C17.24 3.32999 16.99 3.25999 16.77 3.32999L15.2456 3.94232C14.7087 4.15797 14.1082 4.06374 13.6093 3.77075C13.1044 3.47423 12.7094 2.99338 12.6273 2.41365L12.4 0.809994C12.36 0.569994 12.16 0.399994 11.92 0.399994H8.07999C7.83999 0.399994 7.64999 0.569994 7.60999 0.809994L7.38292 2.41207C7.30062 2.99277 6.90071 3.47755 6.39545 3.77539C5.89776 4.06876 5.30219 4.15833 4.7661 3.94299L3.23999 3.32999C3.01999 3.24999 2.76999 3.32999 2.64999 3.54999L0.739988 6.86999C0.619988 7.07999 0.659988 7.33999 0.859988 7.47999L2.14397 8.47935C2.60362 8.83711 2.79999 9.41753 2.79999 9.99999C2.79999 10.5814 2.58414 11.1625 2.12533 11.5196L0.839988 12.52C0.659988 12.66 0.609988 12.93 0.719988 13.13L2.63999 16.45C2.75999 16.67 3.00999 16.74 3.22999 16.67L4.75442 16.0577C5.2913 15.842 5.8918 15.9362 6.39069 16.2292C6.89559 16.5258 7.29053 17.0066 7.3727 17.5863L7.59999 19.19C7.64999 19.43 7.83999 19.6 8.07999 19.6H11.92C12.16 19.6 12.36 19.43 12.39 19.19L12.618 17.5812C12.6997 17.0047 13.0955 16.5254 13.5985 16.2319C14.1004 15.939 14.7014 15.8431 15.2407 16.0597L16.76 16.67C16.98 16.75 17.23 16.67 17.35 16.45L19.27 13.13C19.39 12.91 19.34 12.66 19.15 12.52L17.881 11.5225ZM9.99999 13.6C8.01999 13.6 6.39999 11.98 6.39999 9.99999C6.39999 8.01999 8.01999 6.39999 9.99999 6.39999C11.98 6.39999 13.6 8.01999 13.6 9.99999C13.6 11.98 11.98 13.6 9.99999 13.6Z" fill="#909090"/>
</svg>
