<svg width="20" height="20" viewBox="0 0 20 20" fill="none" xmlns="http://www.w3.org/2000/svg">
<path d="M3.48407 8.90452e-05C3.3813 -0.00126618 3.27929 0.0176134 3.18407 0.0556124C3.08885 0.0936114 3.00235 0.149959 2.92969 0.221327C2.78546 0.362942 2.70444 0.554995 2.70444 0.755248C2.70444 0.9555 2.78546 1.14755 2.92969 1.28917C3.07394 1.43075 3.26957 1.51029 3.47356 1.51029C3.67754 1.51029 3.87317 1.43075 4.01743 1.28917C4.16165 1.14755 4.24267 0.9555 4.24267 0.755248C4.24267 0.554995 4.16165 0.362942 4.01743 0.221327C3.87578 0.0822022 3.68442 0.00282715 3.48407 8.90452e-05ZM16.5385 8.90452e-05C16.4354 -0.00146428 16.3331 0.017319 16.2376 0.0553236C16.1422 0.0933283 16.0554 0.14978 15.9826 0.221327C15.8383 0.362942 15.7573 0.554995 15.7573 0.755248C15.7573 0.9555 15.8383 1.14755 15.9826 1.28917C16.1268 1.43075 16.3225 1.51029 16.5264 1.51029C16.7304 1.51029 16.9261 1.43075 17.0703 1.28917C17.2145 1.14755 17.2956 0.9555 17.2956 0.755248C17.2956 0.554995 17.2145 0.362942 17.0703 0.221327C16.929 0.0825552 16.7383 0.00320912 16.5385 8.90452e-05ZM10 0.365869C6.17615 0.365869 3.07692 3.4084 3.07692 7.1623C3.07692 10.9381 6.15385 12.4484 7.69231 15.469H12.3077C13.8462 12.4484 16.9231 10.9381 16.9231 7.1623C16.9231 3.4084 13.8238 0.365869 10 0.365869ZM10 2.63135V6.40714H13.0769L10 11.6933V7.91746H6.92308L10 2.63135ZM0.769231 6.40714C0.565218 6.40714 0.369561 6.4867 0.225302 6.62832C0.0810437 6.76994 0 6.96202 0 7.1623C0 7.36258 0.0810437 7.55466 0.225302 7.69628C0.369561 7.8379 0.565218 7.91746 0.769231 7.91746C0.973243 7.91746 1.1689 7.8379 1.31316 7.69628C1.45742 7.55466 1.53846 7.36258 1.53846 7.1623C1.53846 6.96202 1.45742 6.76994 1.31316 6.62832C1.1689 6.4867 0.973243 6.40714 0.769231 6.40714ZM19.2308 6.40714C19.0268 6.40714 18.8311 6.4867 18.6868 6.62832C18.5426 6.76994 18.4615 6.96202 18.4615 7.1623C18.4615 7.36258 18.5426 7.55466 18.6868 7.69628C18.8311 7.8379 19.0268 7.91746 19.2308 7.91746C19.4348 7.91746 19.6304 7.8379 19.7747 7.69628C19.919 7.55466 20 7.36258 20 7.1623C20 6.96202 19.919 6.76994 19.7747 6.62832C19.6304 6.4867 19.4348 6.40714 19.2308 6.40714ZM3.48407 12.8142C3.38105 12.8126 3.27875 12.8314 3.18326 12.8694C3.08777 12.9074 3.00103 12.9639 2.92819 13.0354C2.78396 13.177 2.70294 13.3691 2.70294 13.5693C2.70294 13.7696 2.78396 13.9617 2.92819 14.1033C2.99964 14.1736 3.08453 14.2294 3.17798 14.2675C3.27144 14.3055 3.37162 14.3251 3.47281 14.3251C3.57399 14.3251 3.67418 14.3055 3.76763 14.2675C3.86109 14.2294 3.94597 14.1736 4.01743 14.1033C4.16165 13.9617 4.24267 13.7696 4.24267 13.5693C4.24267 13.3691 4.16165 13.177 4.01743 13.0354C3.87578 12.8963 3.68442 12.8169 3.48407 12.8142ZM16.537 12.8157C16.4343 12.8141 16.3323 12.8328 16.2371 12.8705C16.1419 12.9083 16.0554 12.9643 15.9826 13.0354C15.9109 13.1056 15.8541 13.1889 15.8153 13.2807C15.7765 13.3724 15.7566 13.4708 15.7566 13.5701C15.7566 13.6694 15.7765 13.7678 15.8153 13.8595C15.8541 13.9513 15.9109 14.0346 15.9826 14.1047C16.1268 14.2463 16.3225 14.3259 16.5264 14.3259C16.7304 14.3259 16.9261 14.2463 17.0703 14.1047C17.142 14.0346 17.1988 13.9513 17.2376 13.8595C17.2763 13.7678 17.2963 13.6694 17.2963 13.5701C17.2963 13.4708 17.2763 13.3724 17.2376 13.2807C17.1988 13.1889 17.142 13.1056 17.0703 13.0354C16.9284 12.8968 16.7371 12.818 16.537 12.8157ZM7.69231 16.9794V17.7345C7.69231 18.569 8.38077 19.2448 9.23077 19.2448C9.23077 19.4451 9.31181 19.6372 9.45607 19.7788C9.60033 19.9204 9.79599 20 10 20C10.204 20 10.3997 19.9204 10.5439 19.7788C10.6882 19.6372 10.7692 19.4451 10.7692 19.2448C11.6192 19.2448 12.3077 18.569 12.3077 17.7345V16.9794H7.69231Z" fill="#909090"/>
</svg>
