<svg width="34" height="20" viewBox="0 0 34 20" fill="none" xmlns="http://www.w3.org/2000/svg">
<path fill-rule="evenodd" clip-rule="evenodd" d="M13.5283 9.17504C11.3944 9.17504 9.66467 10.9658 9.66467 13.175V15.465C9.66467 17.6742 11.3944 19.465 13.5283 19.465H13.7573V16.4386C13.7573 14.7671 15.0661 13.4121 16.6806 13.4121C18.2951 13.4121 19.604 14.7671 19.604 16.4386V19.465H19.8329C21.9667 19.465 23.6966 17.6742 23.6966 15.465V13.175C23.6966 10.9658 21.9667 9.17504 19.8329 9.17504H13.5283Z" fill="#909090"/>
<path d="M14.859 2.13113C15.9827 1.21126 17.5696 1.21126 18.6933 2.13113L24.3295 6.74507C26.6282 8.62688 25.3429 12.4552 22.4124 12.4552H11.14C8.20941 12.4552 6.92407 8.62688 9.22284 6.74507L14.859 2.13113Z" fill="#909090"/>
</svg>
