<svg width="24" height="24" viewBox="0 0 24 24" fill="none" xmlns="http://www.w3.org/2000/svg">
<g clip-path="url(#clip0_1_700)">
<path d="M18.195 9.30503C17.754 9.746 17 9.43368 17 8.81005V7C17 6.45 16.55 6 16 6H4C3.45 6 3 6.45 3 7V17C3 17.55 3.45 18 4 18H16C16.55 18 17 17.55 17 17V15.1899C17 14.5663 17.754 14.254 18.195 14.695L19.805 16.305C20.246 16.746 21 16.4337 21 15.8101V8.18995C21 7.56632 20.246 7.254 19.805 7.69497L18.195 9.30503Z" fill="#909090"/>
</g>
<defs>
<clipPath id="clip0_1_700">
<rect width="24" height="24" fill="white"/>
</clipPath>
</defs>
</svg>
